<svg xmlns="http://www.w3.org/2000/svg" version="1.1" xmlns:xlink="http://www.w3.org/1999/xlink" xmlns:svgjs="http://svgjs.dev/svgjs" width="1000" height="1000" viewBox="0 0 1000 1000"><rect width="1000" height="1000" fill="#000000"></rect><g transform="matrix(0.7,0,0,0.7,150.00077059784894,106.25)"><svg viewBox="0 0 320 360" data-background-color="#161618" preserveAspectRatio="xMidYMid meet" height="1125" width="1000" xmlns="http://www.w3.org/2000/svg" xmlns:xlink="http://www.w3.org/1999/xlink"><defs></defs><g id="tight-bounds" transform="matrix(1,0,0,1,0.00010353528136874957,0)"><svg viewBox="0 0 320 360" height="360" width="320"><g><svg></svg></g><g><svg viewBox="0 0 320 360" height="360" width="320"><g><path d="M307.925 179.999l6.575-11.387c11.322-19.607 4.604-44.679-15.003-56.001l-11.387-6.575v-13.151c0-22.639-18.354-40.994-40.994-40.994h-13.151l-6.575-11.387c-11.322-19.607-36.393-26.325-56.001-15.003l-11.39 6.572-11.387-6.576c-19.607-11.318-44.679-4.6-56.001 15.007l-6.575 11.387h-13.151c-22.639 0-40.994 18.354-40.994 40.994v13.151l-11.387 6.575c-19.607 11.322-26.325 36.393-15.003 56.001l6.572 11.387-6.576 11.387c-11.318 19.607-4.6 44.679 15.007 56l11.387 6.576v13.15c0 22.639 18.354 40.994 40.994 40.994h13.151l6.575 11.387c11.322 19.607 36.393 26.325 56.001 15.003l11.387-6.571 11.387 6.575c19.607 11.322 44.679 4.604 56-15.003l6.576-11.387h13.15c22.639 0 40.994-18.354 40.994-40.994v-13.151l11.387-6.575c19.607-11.322 26.325-36.393 15.003-56.001zM297.702 115.716c8.655 4.996 14.842 13.062 17.428 22.713 2.586 9.65 1.261 19.734-3.735 28.384l-5.538 9.596-17.747-30.74v-35.494zM251.155 271.155l-57.791 33.365h-66.731l-57.791-33.365-33.365-57.791v-66.731l33.365-57.791 57.791-33.365h66.731l57.791 33.365 33.365 57.791v66.731zM284.517 220.539v31.351l-27.151 15.676zM247.566 277.366l-15.676 27.151h-31.351zM187.15 308.106l-27.151 15.676-27.151-15.676zM119.459 304.517h-31.352l-15.676-27.151zM62.632 267.566l-27.151-15.676v-31.351zM31.891 207.15l-15.675-27.151 15.675-27.151zM35.481 139.459v-31.352l27.151-15.676zM72.431 82.632l15.676-27.151h31.352zM132.848 51.891l27.151-15.675 27.151 15.675zM200.539 55.481h31.351l15.676 27.151zM257.366 92.431l27.151 15.676v31.352zM288.106 152.848l15.676 27.151-15.676 27.151zM247.112 55.481c9.992 0 19.384 3.889 26.452 10.956 7.063 7.063 10.956 16.46 10.957 26.452v11.079l-30.741-17.747-17.747-30.74zM173.18 28.606c8.655-4.996 18.735-6.322 28.385-3.735 9.65 2.586 17.716 8.777 22.712 17.428l5.538 9.596h-35.494l-30.741-17.747zM95.716 42.295c4.996-8.655 13.062-14.842 22.713-17.428 9.65-2.586 19.734-1.261 28.384 3.736l9.596 5.537-30.74 17.747h-35.494zM35.481 92.885c0-9.992 3.889-19.384 10.956-26.452 7.063-7.063 16.46-10.956 26.452-10.956h11.079l-17.747 30.74-30.74 17.747zM8.606 166.817c-4.996-8.655-6.322-18.735-3.735-28.385 2.586-9.65 8.777-17.716 17.428-22.712l9.596-5.538v35.495l-17.747 30.74zM22.295 244.281c-8.655-4.996-14.842-13.062-17.428-22.712-2.586-9.65-1.261-19.734 3.736-28.385l5.537-9.596 17.747 30.74v35.495zM72.885 304.517c-9.992 0-19.384-3.889-26.452-10.957-7.063-7.063-10.956-16.46-10.956-26.451v-11.08l30.74 17.747 17.747 30.741zM146.817 331.391c-8.655 4.996-18.735 6.322-28.385 3.735-9.65-2.586-17.716-8.777-22.712-17.428l-5.538-9.596h35.495l30.74 17.747zM224.281 317.702c-4.996 8.655-13.062 14.842-22.712 17.428-9.65 2.586-19.734 1.261-28.385-3.735l-9.596-5.538 30.74-17.747h35.495zM284.517 267.112c0 9.992-3.889 19.384-10.957 26.452-7.063 7.063-16.46 10.956-26.451 10.957h-11.08l17.747-30.741 30.741-17.747zM315.13 221.565c-2.586 9.65-8.777 17.716-17.428 22.712l-9.596 5.538v-35.494l17.747-30.741 5.538 9.596c4.996 8.658 6.326 18.739 3.739 28.389z" fill="#ffffff" data-fill-palette-color="tertiary"></path></g><g transform="matrix(1,0,0,1,64,150.78106617946816)"><svg viewBox="0 0 192 58.43786764106366" height="58.43786764106366" width="192"><g><svg viewBox="0 0 192 58.43786764106366" height="58.43786764106366" width="192"><g><svg viewBox="0 0 192 58.43786764106366" height="58.43786764106366" width="192"><g><svg viewBox="0 0 192 58.43786764106366" height="58.43786764106366" width="192"><g><svg viewBox="0 0 192 58.43786764106366" height="58.43786764106366" width="192"><g><svg viewBox="0 0 192 33.75081256771398" height="33.75081256771398" width="192"><g transform="matrix(1,0,0,1,0,0)"><svg width="192" viewBox="0.55 -32.1 184.57999999999998 32.45" height="33.75081256771398" data-palette-color="#ffffff"><path d="M18.05-32.1L28.4 0 23.1 0 22.35-3.6 20.95-8.05 14.15-8.2 8-8.05 6.5-3.85 5.7 0 0.55 0 12-32.1 18.05-32.1ZM14.5-12.15L19.65-12.25 15.05-27.05 14.7-27.05 9.45-12.25 14.5-12.15ZM50.85-25.1L50.85-21.55 37-3.7 46.5-3.7 50.95-4.15 51.2-3.9 50.8 0.1 45 0 34.15 0 31.25 0.1 31.25-3.35 45.15-21.3 35.95-21.3 31.75-20.85 31.55-21.15 31.9-25.1 36.9-25.05 48.45-25.05 50.85-25.1ZM77.34-25.05L77.19-12.3 77.14-8.6Q77.19-4.35 74.44-2 71.69 0.35 66.64 0.35L66.64 0.35Q61.64 0.35 59.05-1.98 56.45-4.3 56.55-8.6L56.55-8.6 56.59-12.45 56.45-25.05 61.3-25.05 61.05-9.35Q60.99-3.65 66.84-3.65L66.84-3.65Q69.75-3.65 71.25-5.08 72.75-6.5 72.69-9.35L72.69-9.35 72.5-25.05 77.34-25.05ZM98.64-4L98.94-3.6 98.59 0 84.69 0 84.89-7.5 84.69-25.05 89.59-25.05 89.34-7.95 89.39-4 98.64-4ZM117.49-25.05L117.74-24.65 117.44-20.8 112.59-21.15 110.49-21.15 110.39-7.95 110.54 0 105.74 0 105.94-7.5 105.84-21.15 103.79-21.15 98.84-20.8 98.49-21.2 98.84-25.05 117.49-25.05ZM128.09-25.05L127.84-7.95 128.04 0 123.24 0 123.44-7.5 123.24-25.05 128.09-25.05ZM158.28-25.15L158.03-7.65 158.19 0 152.99 0 141.13-17.6 140.84-17.6 140.78-8.5 140.94 0 136.59 0 136.78-7.35 136.63-25.05 141.74-25.05 153.59-7.45 153.99-7.45 153.84-24.9 158.28-25.15ZM177.23-25.35Q181.13-25.35 185.13-23.8L185.13-23.8 183.68-19.25 183.18-19.25Q181.28-20.4 179.76-20.9 178.23-21.4 176.38-21.4L176.38-21.4Q172.48-21.4 170.63-19.23 168.78-17.05 168.78-12.2L168.78-12.2Q168.78-7.5 170.53-5.53 172.28-3.55 176.28-3.55L176.28-3.55Q177.33-3.55 178.28-3.75 179.23-3.95 180.63-4.45L180.63-4.45 180.63-6.55 180.58-10.3 184.98-10.6 184.93-7.3 184.93-1.2Q179.83 0.35 176.03 0.35L176.03 0.35Q169.93 0.35 166.83-2.85 163.73-6.05 163.73-12L163.73-12Q163.73-18.45 167.26-21.9 170.78-25.35 177.23-25.35L177.23-25.35Z" opacity="1" transform="matrix(1,0,0,1,0,0)" fill="#ffffff" class="undefined-text-0" data-fill-palette-color="primary" id="text-0"></path></svg></g></svg></g><g transform="matrix(1,0,0,1,0,41.71856939544963)"><svg viewBox="0 0 192 16.719298245614034" height="16.719298245614034" width="192"><g transform="matrix(1,0,0,1,0,0)"><svg width="192" viewBox="4.8 -36.5 547.1500000000001 47.65" height="16.719298245614034" data-palette-color="#ffffff"><path d="M6.55 0L4.8 0 4.8-35.5 19.4-35.5Q21.65-35.5 23.5-34.58 25.35-33.65 26.7-32.08 28.05-30.5 28.8-28.58 29.55-26.65 29.55-24.65L29.55-24.65Q29.55-21.95 28.45-19.6 27.35-17.25 25.4-15.7 23.45-14.15 20.85-13.9L20.85-13.9 29.75 0 27.75 0 18.95-13.7 6.55-13.7 6.55 0ZM6.55-33.9L6.55-15.3 19.7-15.3Q22.2-15.3 24.03-16.65 25.85-18 26.85-20.15 27.85-22.3 27.85-24.65L27.85-24.65Q27.85-27.05 26.7-29.18 25.55-31.3 23.63-32.6 21.7-33.9 19.35-33.9L19.35-33.9 6.55-33.9ZM46.35 0.5L46.35 0.5Q43.75 0.5 41.42-0.58 39.1-1.65 37.37-3.53 35.65-5.4 34.67-7.88 33.7-10.35 33.7-13.15L33.7-13.15Q33.7-16.8 35.35-19.8 37-22.8 39.82-24.6 42.65-26.4 46.15-26.4L46.15-26.4Q49.75-26.4 52.57-24.58 55.4-22.75 57.1-19.73 58.8-16.7 58.8-13L58.8-13Q58.8-12.8 58.8-12.6 58.8-12.4 58.75-12.2L58.75-12.2 35.45-12.2Q35.7-9.05 37.22-6.5 38.75-3.95 41.17-2.45 43.6-0.95 46.45-0.95L46.45-0.95Q49.3-0.95 51.8-2.43 54.3-3.9 55.35-6.2L55.35-6.2 56.9-5.8Q56.15-4 54.55-2.55 52.95-1.1 50.82-0.3 48.7 0.5 46.35 0.5ZM35.4-13.65L35.4-13.65 57.1-13.65Q56.9-16.95 55.42-19.48 53.95-22 51.55-23.45 49.15-24.9 46.2-24.9L46.2-24.9Q43.3-24.9 40.92-23.45 38.55-22 37.07-19.45 35.6-16.9 35.4-13.65ZM62.3-7.45L62.3-7.45Q62.3-9.75 63.7-11.43 65.1-13.1 67.5-14.08 69.9-15.05 73.1-15.05L73.1-15.05Q75.2-15.05 77.45-14.68 79.7-14.3 81.5-13.65L81.5-13.65 81.5-16.4Q81.5-20.2 79.27-22.53 77.05-24.85 73.3-24.85L73.3-24.85Q71.4-24.85 69.27-24.05 67.15-23.25 64.95-21.7L64.95-21.7 64.1-22.95Q66.65-24.7 68.95-25.55 71.25-26.4 73.4-26.4L73.4-26.4Q77.9-26.4 80.55-23.68 83.2-20.95 83.2-16.3L83.2-16.3 83.2-2.6Q83.2-2.05 83.42-1.78 83.65-1.5 84.1-1.5L84.1-1.5 84.1 0Q83.75 0 83.52 0 83.3 0 83.15-0.05L83.15-0.05Q82.45-0.2 82.05-0.8 81.65-1.4 81.6-2.1L81.6-2.1 81.6-4.35Q79.8-2.05 76.95-0.78 74.1 0.5 70.85 0.5L70.85 0.5Q68.45 0.5 66.5-0.55 64.55-1.6 63.42-3.43 62.3-5.25 62.3-7.45ZM80.6-5.2L80.6-5.2Q81.05-5.8 81.27-6.38 81.5-6.95 81.5-7.4L81.5-7.4 81.5-12.15Q79.55-12.9 77.47-13.28 75.4-13.65 73.2-13.65L73.2-13.65Q69.05-13.65 66.5-11.98 63.95-10.3 63.95-7.55L63.95-7.55Q63.95-5.75 64.87-4.25 65.8-2.75 67.42-1.85 69.05-0.95 71.05-0.95L71.05-0.95Q74.15-0.95 76.72-2.13 79.3-3.3 80.6-5.2ZM101.84 0.5L101.84 0.5Q99.19 0.5 96.89-0.58 94.59-1.65 92.84-3.53 91.09-5.4 90.12-7.85 89.14-10.3 89.14-13.1L89.14-13.1Q89.14-16.85 90.79-19.85 92.44-22.85 95.32-24.63 98.19-26.4 101.79-26.4L101.79-26.4Q105.19-26.4 107.84-24.83 110.49-23.25 111.79-20.5L111.79-20.5 110.14-19.9Q108.94-22.2 106.67-23.5 104.39-24.8 101.64-24.8L101.64-24.8Q98.64-24.8 96.19-23.25 93.74-21.7 92.29-19.05 90.84-16.4 90.84-13.1L90.84-13.1Q90.84-9.85 92.32-7.1 93.79-4.35 96.27-2.73 98.74-1.1 101.69-1.1L101.69-1.1Q103.64-1.1 105.49-1.83 107.34-2.55 108.69-3.73 110.04-4.9 110.44-6.25L110.44-6.25 112.14-5.75Q111.54-3.95 109.97-2.53 108.39-1.1 106.29-0.3 104.19 0.5 101.84 0.5ZM138.74-14.7L138.74 0 137.04 0 137.04-14.5Q137.04-19.6 135.29-22.2 133.54-24.8 130.19-24.8L130.19-24.8Q127.94-24.8 125.77-23.68 123.59-22.55 122.02-20.63 120.44-18.7 119.74-16.25L119.74-16.25 119.74 0 118.04 0 118.04-36.5 119.74-36.5 119.74-19.5Q121.34-22.65 124.27-24.53 127.19-26.4 130.49-26.4L130.49-26.4Q132.59-26.4 134.12-25.63 135.64-24.85 136.67-23.33 137.69-21.8 138.22-19.65 138.74-17.5 138.74-14.7L138.74-14.7ZM148.24 0L146.54 0 146.54-26 148.24-26 148.24 0ZM148.24-32.3L146.54-32.3 146.54-36.5 148.24-36.5 148.24-32.3ZM177.09-14.7L177.09 0 175.39 0 175.39-14.5Q175.39-19.8 173.86-22.3 172.34-24.8 169.03-24.8L169.03-24.8Q166.69-24.8 164.44-23.68 162.19-22.55 160.51-20.63 158.84-18.7 158.09-16.25L158.09-16.25 158.09 0 156.39 0 156.39-26 158.03-26 158.03-19.5Q159.09-21.55 160.86-23.1 162.64-24.65 164.84-25.53 167.03-26.4 169.34-26.4L169.34-26.4Q171.39-26.4 172.86-25.65 174.34-24.9 175.26-23.45 176.19-22 176.64-19.8 177.09-17.6 177.09-14.7L177.09-14.7ZM195.43 0.45L195.43 0.45Q192.78 0.45 190.48-0.68 188.18-1.8 186.53-3.73 184.88-5.65 183.96-8.03 183.03-10.4 183.03-12.9L183.03-12.9Q183.03-15.55 183.91-17.98 184.78-20.4 186.41-22.3 188.03-24.2 190.23-25.3 192.43-26.4 195.13-26.4L195.13-26.4Q198.58-26.4 201.16-24.55 203.73-22.7 205.53-20.1L205.53-20.1 205.53-26 207.13-26 207.13 0.8Q207.13 4.25 205.48 6.58 203.83 8.9 201.11 10.03 198.38 11.15 195.28 11.15L195.28 11.15Q190.73 11.15 188.11 9.45 185.48 7.75 183.93 5.05L183.93 5.05 185.23 4.35Q186.78 7.1 189.51 8.38 192.23 9.65 195.28 9.65L195.28 9.65Q198.08 9.65 200.38 8.65 202.68 7.65 204.06 5.68 205.43 3.7 205.43 0.8L205.43 0.8 205.43-5.3Q203.83-2.75 201.11-1.15 198.38 0.45 195.43 0.45ZM195.73-1.1L195.73-1.1Q197.48-1.1 199.13-1.75 200.78-2.4 202.18-3.5 203.58-4.6 204.43-5.93 205.28-7.25 205.43-8.6L205.43-8.6 205.43-17.55Q204.63-19.7 203.03-21.33 201.43-22.95 199.43-23.88 197.43-24.8 195.28-24.8L195.28-24.8Q192.83-24.8 190.86-23.75 188.88-22.7 187.53-20.98 186.18-19.25 185.48-17.13 184.78-15 184.78-12.9L184.78-12.9Q184.78-10.55 185.61-8.43 186.43-6.3 187.96-4.63 189.48-2.95 191.46-2.02 193.43-1.1 195.73-1.1ZM239.83 0.5L239.83 0.5Q236.78 0.5 234.05-1.18 231.33-2.85 229.78-5.3L229.78-5.3 229.78 0 228.18 0 228.18-36.5 229.88-36.5 229.88-20.1Q231.83-22.85 234.38-24.63 236.93-26.4 240.28-26.4L240.28-26.4Q243.13-26.4 245.33-25.23 247.53-24.05 249.1-22.1 250.68-20.15 251.48-17.75 252.28-15.35 252.28-12.9L252.28-12.9Q252.28-10.25 251.33-7.85 250.38-5.45 248.68-3.58 246.98-1.7 244.73-0.6 242.48 0.5 239.83 0.5ZM239.58-1.1L239.58-1.1Q241.98-1.1 243.98-2.08 245.98-3.05 247.45-4.78 248.93-6.5 249.75-8.6 250.58-10.7 250.58-12.9L250.58-12.9Q250.58-16 249.23-18.73 247.88-21.45 245.53-23.13 243.18-24.8 240.03-24.8L240.03-24.8Q237.68-24.8 235.73-23.78 233.78-22.75 232.33-21.13 230.88-19.5 229.88-17.55L229.88-17.55 229.88-8.5Q230.03-7 230.98-5.65 231.93-4.3 233.4-3.28 234.88-2.25 236.5-1.68 238.13-1.1 239.58-1.1ZM269.32 0.5L269.32 0.5Q266.73 0.5 264.4-0.58 262.07-1.65 260.35-3.53 258.63-5.4 257.65-7.88 256.68-10.35 256.68-13.15L256.68-13.15Q256.68-16.8 258.32-19.8 259.98-22.8 262.8-24.6 265.63-26.4 269.13-26.4L269.13-26.4Q272.73-26.4 275.55-24.58 278.38-22.75 280.07-19.73 281.77-16.7 281.77-13L281.77-13Q281.77-12.8 281.77-12.6 281.77-12.4 281.73-12.2L281.73-12.2 258.43-12.2Q258.68-9.05 260.2-6.5 261.73-3.95 264.15-2.45 266.57-0.95 269.43-0.95L269.43-0.95Q272.27-0.95 274.77-2.43 277.27-3.9 278.32-6.2L278.32-6.2 279.88-5.8Q279.13-4 277.52-2.55 275.93-1.1 273.8-0.3 271.68 0.5 269.32 0.5ZM258.38-13.65L258.38-13.65 280.07-13.65Q279.88-16.95 278.4-19.48 276.93-22 274.52-23.45 272.13-24.9 269.18-24.9L269.18-24.9Q266.27-24.9 263.9-23.45 261.52-22 260.05-19.45 258.57-16.9 258.38-13.65ZM288.77 11.1L288.77 9.5Q289.57 9.55 290.22 9.5 290.87 9.45 291.12 9.15L291.12 9.15Q291.42 8.95 291.85 8.28 292.27 7.6 293.1 5.68 293.92 3.75 295.52 0L295.52 0 283.67-26 285.52-26 296.42-1.9 306.67-26 308.42-26 293.57 8.8Q293.32 9.4 292.92 9.88 292.52 10.35 292.05 10.63 291.57 10.9 290.82 10.95L290.82 10.95Q290.37 11.05 289.87 11.1 289.37 11.15 288.77 11.1L288.77 11.1ZM323.42 0.5L323.42 0.5Q320.82 0.5 318.52-0.55 316.22-1.6 314.52-3.48 312.82-5.35 311.87-7.78 310.92-10.2 310.92-12.9L310.92-12.9Q310.92-15.65 311.9-18.1 312.87-20.55 314.57-22.43 316.27-24.3 318.57-25.35 320.87-26.4 323.42-26.4L323.42-26.4Q326.02-26.4 328.3-25.35 330.57-24.3 332.3-22.43 334.02-20.55 335-18.1 335.97-15.65 335.97-12.9L335.97-12.9Q335.97-10.2 335.02-7.78 334.07-5.35 332.35-3.48 330.62-1.6 328.35-0.55 326.07 0.5 323.42 0.5ZM312.62-12.85L312.62-12.85Q312.62-9.6 314.07-6.93 315.52-4.25 317.97-2.68 320.42-1.1 323.37-1.1L323.37-1.1Q326.37-1.1 328.82-2.7 331.27-4.3 332.75-7.03 334.22-9.75 334.22-12.95L334.22-12.95Q334.22-16.2 332.75-18.9 331.27-21.6 328.82-23.2 326.37-24.8 323.42-24.8L323.42-24.8Q320.52-24.8 318.05-23.18 315.57-21.55 314.1-18.82 312.62-16.1 312.62-12.85ZM362.92-14.7L362.92 0 361.22 0 361.22-14.5Q361.22-19.8 359.69-22.3 358.17-24.8 354.87-24.8L354.87-24.8Q352.52-24.8 350.27-23.68 348.02-22.55 346.34-20.63 344.67-18.7 343.92-16.25L343.92-16.25 343.92 0 342.22 0 342.22-26 343.87-26 343.87-19.5Q344.92-21.55 346.69-23.1 348.47-24.65 350.67-25.53 352.87-26.4 355.17-26.4L355.17-26.4Q357.22-26.4 358.69-25.65 360.17-24.9 361.09-23.45 362.02-22 362.47-19.8 362.92-17.6 362.92-14.7L362.92-14.7ZM368.87-12.9L368.87-12.9Q368.87-16.55 370.44-19.6 372.02-22.65 374.72-24.53 377.42-26.4 380.87-26.4L380.87-26.4Q384.37-26.4 387.06-24.53 389.77-22.65 391.27-20.1L391.27-20.1 391.27-36.5 392.97-36.5 392.97-2.6Q392.97-2.1 393.22-1.8 393.47-1.5 393.87-1.5L393.87-1.5 393.87 0Q393.27 0.05 392.97-0.05L392.97-0.05Q392.27-0.25 391.81-0.85 391.37-1.45 391.37-2.15L391.37-2.15 391.37-5.3Q389.77-2.7 387.02-1.1 384.27 0.5 381.37 0.5L381.37 0.5Q378.67 0.5 376.37-0.63 374.06-1.75 372.39-3.68 370.72-5.6 369.79-8 368.87-10.4 368.87-12.9ZM391.27-8.6L391.27-8.6 391.27-17.55Q390.56-19.6 388.92-21.23 387.27-22.85 385.22-23.83 383.17-24.8 381.12-24.8L381.12-24.8Q378.72-24.8 376.79-23.8 374.87-22.8 373.47-21.1 372.06-19.4 371.34-17.28 370.62-15.15 370.62-12.9L370.62-12.9Q370.62-10.55 371.44-8.43 372.27-6.3 373.79-4.63 375.31-2.95 377.29-2.02 379.27-1.1 381.56-1.1L381.56-1.1Q383.02-1.1 384.64-1.68 386.27-2.25 387.74-3.3 389.22-4.35 390.17-5.73 391.12-7.1 391.27-8.6ZM434.81-14.7L434.81 0 433.11 0 433.11-14.5Q433.11-19.8 431.58-22.3 430.06-24.8 426.76-24.8L426.76-24.8Q424.41-24.8 422.16-23.68 419.91-22.55 418.24-20.63 416.56-18.7 415.81-16.25L415.81-16.25 415.81 0 414.11 0 414.11-26 415.76-26 415.76-19.5Q416.81-21.55 418.58-23.1 420.36-24.65 422.56-25.53 424.76-26.4 427.06-26.4L427.06-26.4Q429.11-26.4 430.58-25.65 432.06-24.9 432.99-23.45 433.91-22 434.36-19.8 434.81-17.6 434.81-14.7L434.81-14.7ZM440.41-7.45L440.41-7.45Q440.41-9.75 441.81-11.43 443.21-13.1 445.61-14.08 448.01-15.05 451.21-15.05L451.21-15.05Q453.31-15.05 455.56-14.68 457.81-14.3 459.61-13.65L459.61-13.65 459.61-16.4Q459.61-20.2 457.38-22.53 455.16-24.85 451.41-24.85L451.41-24.85Q449.51-24.85 447.38-24.05 445.26-23.25 443.06-21.7L443.06-21.7 442.21-22.95Q444.76-24.7 447.06-25.55 449.36-26.4 451.51-26.4L451.51-26.4Q456.01-26.4 458.66-23.68 461.31-20.95 461.31-16.3L461.31-16.3 461.31-2.6Q461.31-2.05 461.53-1.78 461.76-1.5 462.21-1.5L462.21-1.5 462.21 0Q461.86 0 461.63 0 461.41 0 461.26-0.05L461.26-0.05Q460.56-0.2 460.16-0.8 459.76-1.4 459.71-2.1L459.71-2.1 459.71-4.35Q457.91-2.05 455.06-0.78 452.21 0.5 448.96 0.5L448.96 0.5Q446.56 0.5 444.61-0.55 442.66-1.6 441.53-3.43 440.41-5.25 440.41-7.45ZM458.71-5.2L458.71-5.2Q459.16-5.8 459.38-6.38 459.61-6.95 459.61-7.4L459.61-7.4 459.61-12.15Q457.66-12.9 455.58-13.28 453.51-13.65 451.31-13.65L451.31-13.65Q447.16-13.65 444.61-11.98 442.06-10.3 442.06-7.55L442.06-7.55Q442.06-5.75 442.98-4.25 443.91-2.75 445.53-1.85 447.16-0.95 449.16-0.95L449.16-0.95Q452.26-0.95 454.83-2.13 457.41-3.3 458.71-5.2ZM479.06-2.6L479.71-1.2Q479.61-1.15 478.91-0.78 478.21-0.4 477.13-0.08 476.06 0.25 474.66 0.25L474.66 0.25Q473.36 0.25 472.25-0.25 471.16-0.75 470.5-1.73 469.86-2.7 469.86-4.05L469.86-4.05 469.86-24.5 466.16-24.5 466.16-26 469.86-26 469.86-34.95 471.56-34.95 471.56-26 477.71-26 477.71-24.5 471.56-24.5 471.56-4.3Q471.66-2.85 472.66-2.1 473.66-1.35 474.96-1.35L474.96-1.35Q476.61-1.35 477.78-1.93 478.96-2.5 479.06-2.6L479.06-2.6ZM484-11.2L484-11.2 484-26 485.7-26 485.7-11.4Q485.7-6.2 487.43-3.65 489.15-1.1 492.65-1.1L492.65-1.1Q495-1.1 497.18-2.15 499.35-3.2 501-5.13 502.65-7.05 503.4-9.5L503.4-9.5 503.4-26 505.1-26 505.1-2.6Q505.1-2.1 505.35-1.8 505.6-1.5 506-1.5L506-1.5 506 0Q505.65 0 505.43 0 505.2 0 505.05-0.05L505.05-0.05Q504.4-0.2 503.98-0.78 503.55-1.35 503.55-2.1L503.55-2.1 503.5-6.4Q501.8-3.2 498.8-1.35 495.8 0.5 492.3 0.5L492.3 0.5Q488.2 0.5 486.1-2.45 484-5.4 484-11.2ZM524.95-26L524.95-24.4Q521.4-24.25 518.73-22.13 516.05-20 515-16.35L515-16.35 515 0 513.3 0 513.3-26 514.95-26 514.95-19.4Q516.3-22.15 518.58-23.9 520.85-25.65 523.35-25.95L523.35-25.95Q523.85-26 524.28-26 524.7-26 524.95-26L524.95-26ZM539.5 0.5L539.5 0.5Q536.9 0.5 534.57-0.58 532.25-1.65 530.52-3.53 528.8-5.4 527.82-7.88 526.85-10.35 526.85-13.15L526.85-13.15Q526.85-16.8 528.5-19.8 530.15-22.8 532.97-24.6 535.8-26.4 539.3-26.4L539.3-26.4Q542.9-26.4 545.72-24.58 548.55-22.75 550.25-19.73 551.95-16.7 551.95-13L551.95-13Q551.95-12.8 551.95-12.6 551.95-12.4 551.9-12.2L551.9-12.2 528.6-12.2Q528.85-9.05 530.37-6.5 531.9-3.95 534.32-2.45 536.75-0.95 539.6-0.95L539.6-0.95Q542.45-0.95 544.95-2.43 547.45-3.9 548.5-6.2L548.5-6.2 550.05-5.8Q549.3-4 547.7-2.55 546.1-1.1 543.97-0.3 541.85 0.5 539.5 0.5ZM528.55-13.65L528.55-13.65 550.25-13.65Q550.05-16.95 548.57-19.48 547.1-22 544.7-23.45 542.3-24.9 539.35-24.9L539.35-24.9Q536.45-24.9 534.07-23.45 531.7-22 530.22-19.45 528.75-16.9 528.55-13.65Z" opacity="1" transform="matrix(1,0,0,1,0,0)" fill="#ffffff" class="undefined-text-1" data-fill-palette-color="secondary" id="text-1"></path></svg></g></svg></g></svg></g></svg></g></svg></g></svg></g></svg></g></svg></g></svg><rect width="320" height="360" fill="none" stroke="none" visibility="hidden"></rect></g></svg></g></svg>